<svg width="16" height="17" viewBox="0 0 16 17" fill="none" xmlns="http://www.w3.org/2000/svg">
<path d="M11.392 4.8756C10.9474 4.4345 10.4188 4.08459 9.83665 3.84602C9.2545 3.60745 8.63031 3.48492 8 3.48549V8.22448L4.608 11.5734C6.48 13.4216 9.52 13.4216 11.4 11.5734C11.8455 11.1334 12.1988 10.611 12.4395 10.0361C12.6803 9.46113 12.8038 8.84497 12.8031 8.22284C12.8024 7.60071 12.6773 6.98483 12.4352 6.41047C12.1931 5.8361 11.8386 5.31453 11.392 4.8756ZM8 0.326172C3.584 0.326172 0 3.86461 0 8.22448C0 12.5843 3.584 16.1228 8 16.1228C12.416 16.1228 16 12.5843 16 8.22448C16 3.86461 12.416 0.326172 8 0.326172ZM8 14.5431C4.464 14.5431 1.6 11.7155 1.6 8.22448C1.6 4.73343 4.464 1.90583 8 1.90583C11.536 1.90583 14.4 4.73343 14.4 8.22448C14.4 11.7155 11.536 14.5431 8 14.5431Z" fill="black"/>
</svg>
